<?xml version="1.0" encoding="utf-8"?>
<!-- Generator: Adobe Illustrator 16.0.0, SVG Export Plug-In . SVG Version: 6.00 Build 0)  -->
<!DOCTYPE svg PUBLIC "-//W3C//DTD SVG 1.1//EN" "http://www.w3.org/Graphics/SVG/1.1/DTD/svg11.dtd">
<svg version="1.1" id="Calque_1" xmlns="http://www.w3.org/2000/svg" xmlns:xlink="http://www.w3.org/1999/xlink" x="0px" y="0px"
	 width="200px" height="200px" viewBox="0 0 200 200" enable-background="new 0 0 200 200" xml:space="preserve">
<g id="Calque_2">
	<line fill="none" stroke="#BFA01D" stroke-width="10" stroke-miterlimit="10" x1="18.952" y1="54.505" x2="103.658" y2="100.153"/>
	
		<line fill="none" stroke="#BFA01D" stroke-width="10" stroke-miterlimit="10" x1="103.658" y1="100.153" x2="185.548" y2="54.505"/>
	<line fill="none" stroke="#BFA01D" stroke-width="10" stroke-miterlimit="10" x1="185.548" y1="54.505" x2="103.455" y2="7.896"/>
	<line fill="none" stroke="#BFA01D" stroke-width="10" stroke-miterlimit="10" x1="103.455" y1="7.896" x2="18.952" y2="54.505"/>
	<line fill="none" stroke="#BFA01D" stroke-width="10" stroke-miterlimit="10" x1="18.952" y1="54.505" x2="18.952" y2="145.804"/>
	<line fill="none" stroke="#BFA01D" stroke-width="10" stroke-miterlimit="10" x1="18.952" y1="145.804" x2="103.455" y2="192.41"/>
	
		<line fill="none" stroke="#BFA01D" stroke-width="10" stroke-miterlimit="10" x1="103.455" y1="192.41" x2="185.548" y2="145.804"/>
	
		<line fill="none" stroke="#BFA01D" stroke-width="10" stroke-miterlimit="10" x1="185.548" y1="145.804" x2="185.548" y2="54.505"/>
	
		<line fill="none" stroke="#BFA01D" stroke-width="10" stroke-miterlimit="10" x1="103.658" y1="100.153" x2="103.455" y2="192.41"/>
</g>
<g>
	<g>
		<path fill="#BFA01D" d="M102.384,194.835c0.77,0,2.04-1.168,0.732-1.168C102.347,193.667,101.076,194.835,102.384,194.835
			L102.384,194.835z"/>
	</g>
</g>
<g>
	<g>
		<path fill="#BFA01D" d="M103.889,194.152c0.025-0.539,0.129-1.014,0.355-1.506c-0.626,0.065-1.252,0.131-1.877,0.196
			c0.14,0.597,0.025,1.196,0.075,1.802c0.058,0.694,0.726,1.027,1.315,1.19c0.445,0.123,1.499-0.078,1.547-0.683
			c0.034-0.422,0.143-0.819,0.078-1.244c-0.619,0.22-1.238,0.439-1.856,0.659c0.274,0.416,0.552,0.831,0.733,1.299
			c0.055,0.139,0.087,0.27,0.063,0.416c0.521-0.24,0.634-0.335,0.335-0.285c-0.206,0.003-0.413-0.029-0.618-0.044
			c-0.772-0.057-1.979-0.102-1.379-1.14c-0.557,0.149-1.112,0.298-1.668,0.447c0.572,0.322,1.026,0.818,1.62,1.11
			c0.66,0.324,1.816,0.21,2.132-0.558c0.392-0.953-1.544-0.802-1.822-0.125c0.115-0.081,0.229-0.161,0.345-0.242
			c0.253-0.048,0.506-0.095,0.759-0.143c-0.34,0.006-1.114-0.834-1.518-1.063c-0.5-0.281-1.38-0.053-1.668,0.447
			c-1.251,2.166,1.599,2.48,3.106,2.549c0.902,0.041,1.987-0.222,2.321-1.153c0.258-0.719-0.604-1.78-0.959-2.317
			c-0.391-0.592-1.967-0.072-1.856,0.659c0.046,0.303-0.065,0.622-0.09,0.924c0.516-0.228,1.031-0.455,1.547-0.683
			c-0.903-0.249-0.438-1.609-0.609-2.342c-0.171-0.732-1.652-0.292-1.877,0.196c-0.271,0.592-0.446,1.175-0.477,1.828
			C101.903,195.252,103.854,194.9,103.889,194.152L103.889,194.152z"/>
	</g>
</g>
<g>
	<g>
		<path fill="#BFA01D" d="M185.534,146.593c0.035,0.133,0.133,0.203,0.167,0.334c0.122,0.465,2.055-0.049,1.932-0.518
			c-0.035-0.133-0.133-0.203-0.167-0.334C187.344,145.61,185.411,146.124,185.534,146.593L185.534,146.593z"/>
	</g>
</g>
<g>
	<g>
		<path fill="#BFA01D" d="M187.133,146.409c-0.08-0.129-0.324-0.345-0.246-0.436c-0.429,0.164-0.856,0.328-1.284,0.493
			c0.833,0,1.666,0,2.5,0c0.42,0,1-0.162,1.284-0.493c0.298-0.349-0.256-0.438-0.489-0.438c-0.889,0-1.862-0.111-2.741,0.023
			c-0.446,0.068-0.997,0.263-1.211,0.699c-0.154,0.316,0.107,0.43,0.256,0.669C185.548,147.486,187.364,146.783,187.133,146.409
			L187.133,146.409z"/>
	</g>
</g>
<g>
	<g>
		<path fill="#BFA01D" d="M188.118,145.77c0.29,0.593,0.047,1.319-0.217,1.869c-0.174,0.359-0.609,1.026-1.075,0.961
			c-0.992-0.139-1.951,1.287-0.652,1.469c2.587,0.362,4.838-2.856,3.708-5.17C189.482,144.081,187.655,144.821,188.118,145.77
			L188.118,145.77z"/>
	</g>
</g>
<g>
	<g>
		<path fill="#BFA01D" d="M186.024,146.919c-0.131,0.489,0.032,0.878-0.275,1.326c-0.43,0.63,0.711,0.84,1.084,0.707
			c0.679-0.242,1.237-0.54,1.585-1.195c0.224-0.423-0.194-0.717-0.573-0.753c-0.455-0.044-1.036,0.149-1.263,0.575
			c-0.073,0.139-0.009,0.057-0.104,0.165c0.013-0.014,0.053-0.039,0.022-0.028c0.361,0.235,0.723,0.471,1.084,0.707
			c0.193-0.283,0.323-0.588,0.348-0.933c0.019-0.256-0.025-0.488,0.043-0.741c0.126-0.47-0.574-0.606-0.879-0.58
			C186.644,146.209,186.15,146.452,186.024,146.919L186.024,146.919z"/>
	</g>
</g>
<g>
	<g>
		<path fill="#BFA01D" d="M188.201,145.76c0.102,0.646-0.034,1.28-0.339,1.857c-0.124,0.236-0.29,0.447-0.46,0.652
			c-0.087,0.097-0.182,0.186-0.283,0.267c-0.108,0.094-0.332,0.132-0.067,0.116c-0.438,0.025-0.997,0.137-1.279,0.515
			c-0.267,0.357,0.225,0.532,0.51,0.517c2.219-0.126,4.213-2.137,3.851-4.441C190.038,144.637,188.096,145.086,188.201,145.76
			L188.201,145.76z"/>
	</g>
</g>
<g>
	<g>
		<path fill="#BFA01D" d="M188.966,146.909c-0.102-0.224-0.155-0.412-0.156-0.657c-0.005-0.981-1.957-0.659-1.953,0.164
			c0.002,0.364,0.025,0.677,0.178,1.011c0.198,0.436,0.714,0.483,1.135,0.37C188.468,147.717,189.162,147.339,188.966,146.909
			L188.966,146.909z"/>
	</g>
</g>
<g>
	<g>
		<path fill="#BFA01D" d="M188.367,146.093c0.354,1.432-1.188,2.476-2.019,3.419c-0.312,0.354-0.147,0.846,0.271,1.011
			c0.476,0.187,1.038,0.007,1.366-0.366c1.17-1.328,2.806-2.596,2.313-4.581C190.062,144.616,188.129,145.13,188.367,146.093
			L188.367,146.093z"/>
	</g>
</g>
<g>
	<g>
		<path fill="#BFA01D" d="M186.235,50.982c1.854,0.889,2.741,3.951,1.528,5.649c-0.533,0.746,1.423,0.609,1.807,0.071
			c1.48-2.072,0.456-5.601-1.806-6.685C187.167,49.731,185.402,50.583,186.235,50.982L186.235,50.982z"/>
	</g>
</g>
<g>
	<g>
		<path fill="#BFA01D" d="M186.692,53.088c-0.015,0.562-0.103,1.07-0.49,1.499c0.588-0.004,1.176-0.008,1.764-0.012
			c-0.46-1.003-0.277-1.969,0.009-2.996c0.239-0.858-1.73-0.609-1.949,0.176c-0.311,1.116-0.491,2.249,0.009,3.337
			c0.302,0.658,1.363,0.431,1.764-0.012c0.56-0.618,0.822-1.339,0.844-2.168C188.666,51.958,186.713,52.287,186.692,53.088
			L186.692,53.088z"/>
	</g>
</g>
<g>
	<g>
		<path fill="#BFA01D" d="M185.737,52.924c-0.803,0.427-1.525,1.037-2.047,1.786c-0.706,1.012,1.107,1.314,1.619,0.579
			c0.337-0.483,0.763-0.935,1.287-1.214c0.339-0.18,0.754-0.601,0.454-1.003C186.767,52.691,186.114,52.724,185.737,52.924
			L185.737,52.924z"/>
	</g>
</g>
<g>
	<g>
		<path fill="#BFA01D" d="M103.358,5.888c-0.285,0.197-0.832-1.613-0.893-1.98c-0.179,0.278-0.357,0.556-0.537,0.833
			c1.269-0.563,2.504,0.552,3.188,1.519c0.51,0.723,2.35-0.029,1.768-0.854c-1.354-1.919-3.605-2.793-5.813-1.815
			c-0.33,0.146-0.598,0.459-0.537,0.833c0.144,0.88,0.479,1.954,1.216,2.523c0.908,0.702,2.015,0.438,2.892-0.17
			c0.341-0.235,0.49-0.737,0.103-1.005C104.329,5.486,103.742,5.622,103.358,5.888L103.358,5.888z"/>
	</g>
</g>
<g>
	<g>
		<path fill="#BFA01D" d="M103.479,4.71c1.232-0.389,2.255,1.306,2.722,2.215c0.37,0.721,2.256,0.114,1.932-0.518
			c-0.991-1.935-2.615-3.519-4.944-2.785c-0.306,0.097-0.938,0.365-0.82,0.802C102.48,4.844,103.174,4.806,103.479,4.71
			L103.479,4.71z"/>
	</g>
</g>
<g>
	<g>
		<path fill="#BFA01D" d="M105.466,6.575c-0.378-0.711-0.955-1.29-1.333-2c-0.289-0.544-1.74-0.073-1.925,0.405
			c-0.326,0.846-0.494,1.707-0.507,2.613c-0.007,0.452,1.922,0.139,1.932-0.518c0.012-0.827,0.197-1.618,0.493-2.387
			c-0.642,0.135-1.283,0.27-1.925,0.405c0.378,0.711,0.956,1.29,1.333,2C103.837,7.663,105.689,6.996,105.466,6.575L105.466,6.575z"
			/>
	</g>
</g>
<g>
	<g>
		<path fill="#BFA01D" d="M105.059,8.268c-0.42-0.574-0.74-1.171-0.926-1.86c-0.208-0.771-2.14-0.253-1.932,0.518
			c0.211,0.782,0.599,1.489,1.074,2.14C103.719,9.671,105.579,8.98,105.059,8.268L105.059,8.268z"/>
	</g>
</g>
<g>
	<g>
		<path fill="#BFA01D" d="M109.473,12.27c0.795,0,2.029-1.206,0.723-1.206C109.4,11.063,108.166,12.27,109.473,12.27L109.473,12.27z
			"/>
	</g>
</g>
<g>
	<g>
		<path fill="#BFA01D" d="M104.455,9.368c0.704,0,2.063-1.069,0.758-1.069C104.509,8.299,103.149,9.368,104.455,9.368L104.455,9.368
			z"/>
	</g>
</g>
<g>
	<g>
		<path fill="#BFA01D" d="M103.814,8.301c0.404-0.385,0.871-0.691,1.333-1c0.357-0.238,0.471-0.769,0.093-1.041
			c-0.422-0.304-0.993-0.158-1.388,0.105c-0.463,0.309-0.93,0.614-1.333,1C101.574,8.268,103.085,8.999,103.814,8.301L103.814,8.301
			z"/>
	</g>
</g>
<g>
	<g>
		<path fill="#BFA01D" d="M16.264,50.454c-0.782,0.455-0.93,1.242-1.397,1.971c-0.512,0.797-0.838,2.046-0.739,2.99
			c0.036,0.34,1.983-0.028,1.932-0.518c-0.092-0.879,0.241-1.764,0.568-2.572c0.142-0.351,0.408-0.659,0.574-1.001
			c0.157-0.324,0.192-0.643,0.535-0.841c0.319-0.186,0.254-0.388-0.106-0.395C17.168,50.079,16.662,50.223,16.264,50.454
			L16.264,50.454z"/>
	</g>
</g>
<g>
	<g>
		<path fill="#BFA01D" d="M16.091,54.741c-0.033-1.196,0.293-3.806,1.709-4.313c0.809-0.29,0.702-0.722-0.149-0.558
			c-0.494,0.095-0.915,0.215-1.361,0.447c0.476,0.014,0.952,0.028,1.427,0.042c0.057-0.054,0.113-0.107,0.17-0.161
			c-0.266,0.122-0.531,0.244-0.796,0.367c-0.073,0.013-0.146,0.027-0.22,0.04c0.458,0.011,0.976-0.125,1.366-0.366
			c0.311-0.191,0.259-0.4-0.109-0.409c-0.764-0.018-1.588,0.145-2.158,0.684c-0.477,0.45,1.242,0.138,1.427,0.042
			c-0.037,0.003-0.074,0.006-0.111,0.01c-0.05-0.186-0.1-0.372-0.149-0.558c-2.227,0.797-3.039,3.031-2.978,5.25
			C14.168,55.574,16.105,55.275,16.091,54.741L16.091,54.741z"/>
	</g>
</g>
<g>
	<g>
		<path fill="#BFA01D" d="M17.701,55.44c0.158-0.751,0.018-1.529,0.017-2.289c0-0.342,0.021-0.724,0.227-1.01
			c0.133-0.187-0.393,0.427-0.892-0.113c0.057,0.062,0.057,0.097,0.095,0.227c0.251,0.86,0.148,1.927,0.025,2.805
			c0.655-0.04,1.31-0.08,1.965-0.119c-0.005-0.388-0.015-0.77,0.031-1.156c-0.621,0.167-1.242,0.333-1.863,0.499
			c0.109,0.196,0.203,0.398,0.313,0.594c0.456,0.82,2.281,0.056,1.761-0.879c-0.109-0.196-0.203-0.398-0.313-0.594
			c-0.399-0.718-1.777-0.216-1.863,0.499c-0.046,0.386-0.036,0.768-0.031,1.156c0.013,1.082,1.836,0.803,1.965-0.119
			c0.092-0.662,0.106-1.342,0.083-2.009c-0.025-0.748-0.071-1.748-0.84-2.122c-0.964-0.47-1.945,0.385-2.373,1.17
			c-0.587,1.08-0.032,2.434-0.273,3.58C15.524,56.572,17.507,56.362,17.701,55.44L17.701,55.44z"/>
	</g>
</g>
<g>
	<g>
		<path fill="#BFA01D" d="M13.951,145.301c0.038,1.915,0.604,3.956,2.564,4.595c-0.062-0.101-0.123-0.2-0.185-0.301
			c-0.065,0.151-0.105,0.29-0.087,0.456c0.622-0.207,1.245-0.414,1.867-0.621c-1.358-1.039-1.071-2.514-0.69-3.983
			c0.161-0.622-1.768-0.323-1.923,0.273c-0.421,1.623-0.681,3.293,0.81,4.435c0.409,0.313,1.94,0.051,1.867-0.621
			c0.018-0.073,0.044-0.145,0.079-0.212c0.058-0.134-0.07-0.264-0.185-0.301c-1.752-0.57-2.153-2.563-2.186-4.237
			C15.872,144.262,13.937,144.614,13.951,145.301L13.951,145.301z"/>
	</g>
</g>
<g>
	<g>
		<path fill="#BFA01D" d="M16.576,147.301c-0.037,0.576-0.044,1.153-0.117,1.726c0.641-0.137,1.282-0.273,1.923-0.41
			c-0.041-0.487-0.098-0.972-0.123-1.46c-0.014-0.278-0.017-0.561,0.009-0.839c0.011-0.112,0.034-0.222,0.06-0.331
			c0.11-0.469,0.325-0.007-0.647,0.123c-0.208-0.004-0.415-0.009-0.623-0.014c0.02,0.007,0.04,0.014,0.06,0.021
			c-0.061-0.05-0.121-0.1-0.182-0.149c0.087,0.132-0.032,0.368-0.111,0.488c-0.302,0.454,0.459,0.428,0.722,0.386
			c0.574-0.093,1.139-0.296,1.717-0.351c-0.188-0.063-0.376-0.126-0.563-0.189c0.046,0.114,0.047,0.229,0,0.345
			c-0.206,0.273-0.066,0.251,0.419-0.069c-0.331,0.04-0.981,0.214-1.119,0.575c-0.142,0.373,0.65,0.289,0.796,0.272
			c0.811-0.097,2.067-0.62,1.835-1.641c-0.045-0.198-0.423-0.202-0.563-0.189c-0.75,0.07-1.459,0.281-2.199,0.399
			c0.241,0.129,0.481,0.258,0.722,0.386c0.171-0.258,0.572-0.91,0.094-1.08c-0.619-0.221-1.699,0.097-2.098,0.629
			c-0.324,0.433-0.278,1.096-0.266,1.604c0.012,0.536,0.083,1.068,0.128,1.602c0.041,0.479,1.864,0.057,1.923-0.41
			c0.082-0.645,0.092-1.293,0.133-1.94C18.532,146.393,16.616,146.658,16.576,147.301L16.576,147.301z"/>
	</g>
</g>
<g>
	<g>
		<path fill="#BFA01D" d="M17.791,147.077c-0.025,0.088-0.059,0.172-0.101,0.253c-0.059,0.084-0.052,0.09,0.019,0.016
			c0.461,0.09,0.922,0.18,1.383,0.271c-0.18-0.449-0.206-1.369,0.243-1.545c0.333-0.13,0.757-0.579,0.47-0.944
			c-0.305-0.388-0.918-0.266-1.304-0.114c-1.194,0.466-1.818,1.929-1.34,3.121c0.218,0.544,0.948,0.453,1.383,0.271
			c0.511-0.213,0.905-0.623,1.084-1.147C19.979,146.229,18.05,146.318,17.791,147.077L17.791,147.077z"/>
	</g>
</g>
</svg>
